<mxfile host="app.diagrams.net" modified="2021-10-20T23:01:53.538Z" agent="5.0 (Windows NT 10.0; Win64; x64) AppleWebKit/537.36 (KHTML, like Gecko) Chrome/94.0.4606.81 Safari/537.36" etag="GBNGTzK5-3Z5opIYePWK" version="15.4.3" type="github">
  <diagram name="Page-1" id="58cdce13-f638-feb5-8d6f-7d28b1aa9fa0">
    <mxGraphModel dx="1422" dy="762" grid="1" gridSize="10" guides="1" tooltips="1" connect="1" arrows="1" fold="1" page="1" pageScale="1" pageWidth="1100" pageHeight="850" background="none" math="0" shadow="0">
      <root>
        <mxCell id="0" />
        <mxCell id="1" parent="0" />
        <mxCell id="PiMLSFsIB0W1W1bXV1jr-1" value="" style="ellipse;html=1;shape=startState;fillColor=#000000;strokeColor=#ff0000;" parent="1" vertex="1">
          <mxGeometry x="80" y="40" width="30" height="30" as="geometry" />
        </mxCell>
        <mxCell id="PiMLSFsIB0W1W1bXV1jr-2" value="" style="edgeStyle=orthogonalEdgeStyle;html=1;verticalAlign=bottom;endArrow=open;endSize=8;strokeColor=#ff0000;rounded=0;" parent="1" source="PiMLSFsIB0W1W1bXV1jr-1" edge="1">
          <mxGeometry relative="1" as="geometry">
            <mxPoint x="95" y="130" as="targetPoint" />
          </mxGeometry>
        </mxCell>
        <mxCell id="PiMLSFsIB0W1W1bXV1jr-12" value="" style="ellipse;html=1;shape=endState;fillColor=#000000;strokeColor=#ff0000;" parent="1" vertex="1">
          <mxGeometry x="965" y="280" width="30" height="30" as="geometry" />
        </mxCell>
        <mxCell id="PiMLSFsIB0W1W1bXV1jr-15" value="" style="edgeStyle=orthogonalEdgeStyle;html=1;verticalAlign=bottom;endArrow=open;endSize=8;strokeColor=#ff0000;rounded=0;" parent="1" edge="1">
          <mxGeometry relative="1" as="geometry">
            <mxPoint x="95" y="250" as="targetPoint" />
            <mxPoint x="95" y="190" as="sourcePoint" />
          </mxGeometry>
        </mxCell>
        <mxCell id="PiMLSFsIB0W1W1bXV1jr-19" style="edgeStyle=orthogonalEdgeStyle;rounded=0;orthogonalLoop=1;jettySize=auto;html=1;fillColor=#f8cecc;strokeColor=#FF0000;endArrow=open;endFill=0;" parent="1" edge="1">
          <mxGeometry relative="1" as="geometry">
            <mxPoint x="250" y="280" as="targetPoint" />
            <mxPoint x="175" y="280" as="sourcePoint" />
          </mxGeometry>
        </mxCell>
        <mxCell id="PiMLSFsIB0W1W1bXV1jr-22" value="" style="edgeStyle=orthogonalEdgeStyle;html=1;verticalAlign=bottom;endArrow=open;endSize=8;strokeColor=#ff0000;rounded=0;" parent="1" edge="1">
          <mxGeometry relative="1" as="geometry">
            <mxPoint x="510" y="380" as="targetPoint" />
            <mxPoint x="510" y="310" as="sourcePoint" />
          </mxGeometry>
        </mxCell>
        <mxCell id="PiMLSFsIB0W1W1bXV1jr-26" value="Bilhete Disponível?" style="rhombus;whiteSpace=wrap;html=1;fillColor=#ffffc0;strokeColor=#ff0000;" parent="1" vertex="1">
          <mxGeometry x="440" y="350" width="140" height="60" as="geometry" />
        </mxCell>
        <mxCell id="PiMLSFsIB0W1W1bXV1jr-27" value="Não" style="edgeStyle=orthogonalEdgeStyle;html=1;align=left;verticalAlign=bottom;endArrow=open;endSize=8;strokeColor=#ff0000;rounded=0;entryX=0;entryY=0.5;entryDx=0;entryDy=0;" parent="1" source="PiMLSFsIB0W1W1bXV1jr-26" target="PiMLSFsIB0W1W1bXV1jr-29" edge="1">
          <mxGeometry x="-1" relative="1" as="geometry">
            <mxPoint x="630" y="380" as="targetPoint" />
          </mxGeometry>
        </mxCell>
        <mxCell id="PiMLSFsIB0W1W1bXV1jr-28" value="Sim" style="edgeStyle=orthogonalEdgeStyle;html=1;align=left;verticalAlign=top;endArrow=open;endSize=8;strokeColor=#ff0000;rounded=0;" parent="1" source="PiMLSFsIB0W1W1bXV1jr-26" edge="1">
          <mxGeometry x="-1" relative="1" as="geometry">
            <mxPoint x="510" y="450" as="targetPoint" />
          </mxGeometry>
        </mxCell>
        <mxCell id="PiMLSFsIB0W1W1bXV1jr-45" style="edgeStyle=orthogonalEdgeStyle;rounded=0;orthogonalLoop=1;jettySize=auto;html=1;entryX=0;entryY=0.5;entryDx=0;entryDy=0;endArrow=open;endFill=0;strokeColor=#FF0000;" parent="1" source="PiMLSFsIB0W1W1bXV1jr-29" target="PiMLSFsIB0W1W1bXV1jr-12" edge="1">
          <mxGeometry relative="1" as="geometry">
            <Array as="points">
              <mxPoint x="740" y="295" />
            </Array>
          </mxGeometry>
        </mxCell>
        <mxCell id="PiMLSFsIB0W1W1bXV1jr-29" value="Pagamento cancelado" style="swimlane;fontStyle=1;align=center;verticalAlign=middle;childLayout=stackLayout;horizontal=1;startSize=30;horizontalStack=0;resizeParent=0;resizeLast=1;container=0;fontColor=#000000;collapsible=0;rounded=1;arcSize=30;strokeColor=#ff0000;fillColor=#ffffc0;swimlaneFillColor=#ffffc0;dropTarget=0;" parent="1" vertex="1">
          <mxGeometry x="660" y="350" width="160" height="60" as="geometry" />
        </mxCell>
        <mxCell id="PiMLSFsIB0W1W1bXV1jr-32" value="Cliente seleciona espetáculo" style="swimlane;fontStyle=1;align=center;verticalAlign=middle;childLayout=stackLayout;horizontal=1;startSize=30;horizontalStack=0;resizeParent=0;resizeLast=1;container=0;fontColor=#000000;collapsible=0;rounded=1;arcSize=28;strokeColor=#ff0000;fillColor=#ffffc0;swimlaneFillColor=#ffffc0;dropTarget=0;" parent="1" vertex="1">
          <mxGeometry x="7.5" y="130" width="175" height="60" as="geometry" />
        </mxCell>
        <mxCell id="PiMLSFsIB0W1W1bXV1jr-35" value="Espetáculo Selecionado" style="swimlane;fontStyle=1;align=center;verticalAlign=middle;childLayout=stackLayout;horizontal=1;startSize=30;horizontalStack=0;resizeParent=0;resizeLast=1;container=0;fontColor=#000000;collapsible=0;rounded=1;arcSize=30;strokeColor=#ff0000;fillColor=#ffffc0;swimlaneFillColor=#ffffc0;dropTarget=0;" parent="1" vertex="1">
          <mxGeometry x="15" y="250" width="160" height="60" as="geometry" />
        </mxCell>
        <mxCell id="PiMLSFsIB0W1W1bXV1jr-46" value="Dados de pagamento inseridos" style="swimlane;fontStyle=1;align=center;verticalAlign=middle;childLayout=stackLayout;horizontal=1;startSize=30;horizontalStack=0;resizeParent=0;resizeLast=1;container=0;fontColor=#000000;collapsible=0;rounded=1;arcSize=30;strokeColor=#ff0000;fillColor=#ffffc0;swimlaneFillColor=#ffffc0;dropTarget=0;" parent="1" vertex="1">
          <mxGeometry x="415" y="455" width="190" height="80" as="geometry" />
        </mxCell>
        <mxCell id="PiMLSFsIB0W1W1bXV1jr-47" value="Entry: /Pedido Espetáculo&lt;br&gt;Do: /Inserir dados de pagamento&lt;br&gt;Exit: /Pedido Finalizado" style="text;html=1;strokeColor=none;fillColor=none;align=center;verticalAlign=middle;spacingLeft=4;spacingRight=4;whiteSpace=wrap;overflow=hidden;rotatable=0;fontColor=#000000;" parent="PiMLSFsIB0W1W1bXV1jr-46" vertex="1">
          <mxGeometry y="30" width="190" height="50" as="geometry" />
        </mxCell>
        <mxCell id="PiMLSFsIB0W1W1bXV1jr-48" value="" style="edgeStyle=orthogonalEdgeStyle;html=1;verticalAlign=bottom;endArrow=open;endSize=8;strokeColor=#ff0000;rounded=0;" parent="1" edge="1">
          <mxGeometry relative="1" as="geometry">
            <mxPoint x="510" y="570" as="targetPoint" />
            <mxPoint x="510" y="530" as="sourcePoint" />
          </mxGeometry>
        </mxCell>
        <mxCell id="PiMLSFsIB0W1W1bXV1jr-52" style="edgeStyle=orthogonalEdgeStyle;rounded=0;orthogonalLoop=1;jettySize=auto;html=1;endArrow=open;endFill=0;strokeColor=#FF0000;" parent="1" source="PiMLSFsIB0W1W1bXV1jr-49" edge="1">
          <mxGeometry relative="1" as="geometry">
            <mxPoint x="670" y="600" as="targetPoint" />
          </mxGeometry>
        </mxCell>
        <mxCell id="PiMLSFsIB0W1W1bXV1jr-49" value="Pagamento Realizado" style="swimlane;fontStyle=1;align=center;verticalAlign=middle;childLayout=stackLayout;horizontal=1;startSize=30;horizontalStack=0;resizeParent=0;resizeLast=1;container=0;fontColor=#000000;collapsible=0;rounded=1;arcSize=30;strokeColor=#ff0000;fillColor=#ffffc0;swimlaneFillColor=#ffffc0;dropTarget=0;" parent="1" vertex="1">
          <mxGeometry x="430" y="570" width="160" height="60" as="geometry" />
        </mxCell>
        <mxCell id="PiMLSFsIB0W1W1bXV1jr-68" style="edgeStyle=orthogonalEdgeStyle;rounded=0;orthogonalLoop=1;jettySize=auto;html=1;endArrow=open;endFill=0;strokeColor=#FF0000;entryX=0.25;entryY=1;entryDx=0;entryDy=0;exitX=0;exitY=0;exitDx=0;exitDy=0;" parent="1" source="PiMLSFsIB0W1W1bXV1jr-59" edge="1">
          <mxGeometry relative="1" as="geometry">
            <mxPoint x="697.5" y="510" as="targetPoint" />
          </mxGeometry>
        </mxCell>
        <mxCell id="PiMLSFsIB0W1W1bXV1jr-69" style="edgeStyle=orthogonalEdgeStyle;rounded=0;orthogonalLoop=1;jettySize=auto;html=1;endArrow=open;endFill=0;strokeColor=#FF0000;" parent="1" source="PiMLSFsIB0W1W1bXV1jr-59" edge="1">
          <mxGeometry relative="1" as="geometry">
            <mxPoint x="900" y="600" as="targetPoint" />
          </mxGeometry>
        </mxCell>
        <mxCell id="PiMLSFsIB0W1W1bXV1jr-59" value="Pagamento &lt;br&gt;Confirmado?" style="rhombus;whiteSpace=wrap;html=1;fillColor=#ffffc0;strokeColor=#ff0000;" parent="1" vertex="1">
          <mxGeometry x="670" y="570" width="140" height="60" as="geometry" />
        </mxCell>
        <mxCell id="PiMLSFsIB0W1W1bXV1jr-62" value="Comprar&lt;br&gt;Bilhete?" style="rhombus;whiteSpace=wrap;html=1;fillColor=#ffffc0;strokeColor=#ff0000;" parent="1" vertex="1">
          <mxGeometry x="250" y="250" width="110" height="60" as="geometry" />
        </mxCell>
        <mxCell id="PiMLSFsIB0W1W1bXV1jr-63" value="Sim" style="edgeStyle=orthogonalEdgeStyle;html=1;align=left;verticalAlign=bottom;endArrow=open;endSize=8;strokeColor=#ff0000;rounded=0;" parent="1" source="PiMLSFsIB0W1W1bXV1jr-62" edge="1">
          <mxGeometry x="-1" relative="1" as="geometry">
            <mxPoint x="430" y="280" as="targetPoint" />
          </mxGeometry>
        </mxCell>
        <mxCell id="PiMLSFsIB0W1W1bXV1jr-64" value="" style="edgeStyle=orthogonalEdgeStyle;html=1;align=left;verticalAlign=top;endArrow=open;endSize=8;strokeColor=#ff0000;rounded=0;exitX=0.5;exitY=0;exitDx=0;exitDy=0;entryX=0.5;entryY=0;entryDx=0;entryDy=0;" parent="1" source="PiMLSFsIB0W1W1bXV1jr-62" target="PiMLSFsIB0W1W1bXV1jr-12" edge="1">
          <mxGeometry x="-1" relative="1" as="geometry">
            <mxPoint x="305" y="350" as="targetPoint" />
          </mxGeometry>
        </mxCell>
        <mxCell id="PiMLSFsIB0W1W1bXV1jr-67" value="&lt;span style=&quot;color: rgb(0 , 0 , 0) ; font-family: &amp;#34;helvetica&amp;#34; ; font-size: 11px ; font-style: normal ; font-weight: 400 ; letter-spacing: normal ; text-align: left ; text-indent: 0px ; text-transform: none ; word-spacing: 0px ; background-color: rgb(255 , 255 , 255) ; display: inline ; float: none&quot;&gt;Não&lt;/span&gt;" style="text;whiteSpace=wrap;html=1;" parent="1" vertex="1">
          <mxGeometry x="310" y="210" width="40" height="30" as="geometry" />
        </mxCell>
        <mxCell id="PiMLSFsIB0W1W1bXV1jr-73" style="edgeStyle=orthogonalEdgeStyle;rounded=0;orthogonalLoop=1;jettySize=auto;html=1;entryX=0.5;entryY=1;entryDx=0;entryDy=0;endArrow=open;endFill=0;strokeColor=#FF0000;" parent="1" source="PiMLSFsIB0W1W1bXV1jr-70" target="PiMLSFsIB0W1W1bXV1jr-12" edge="1">
          <mxGeometry relative="1" as="geometry" />
        </mxCell>
        <mxCell id="PiMLSFsIB0W1W1bXV1jr-70" value="Compra finalizada" style="swimlane;fontStyle=1;align=center;verticalAlign=middle;childLayout=stackLayout;horizontal=1;startSize=30;horizontalStack=0;resizeParent=0;resizeLast=1;container=0;fontColor=#000000;collapsible=0;rounded=1;arcSize=30;strokeColor=#ff0000;fillColor=#ffffc0;swimlaneFillColor=#ffffc0;dropTarget=0;" parent="1" vertex="1">
          <mxGeometry x="890" y="570" width="180" height="60" as="geometry" />
        </mxCell>
        <mxCell id="PiMLSFsIB0W1W1bXV1jr-71" value="Entry: /Pagamento confirmado" style="text;html=1;strokeColor=none;fillColor=none;align=center;verticalAlign=middle;spacingLeft=4;spacingRight=4;whiteSpace=wrap;overflow=hidden;rotatable=0;fontColor=#000000;" parent="PiMLSFsIB0W1W1bXV1jr-70" vertex="1">
          <mxGeometry y="30" width="180" height="30" as="geometry" />
        </mxCell>
        <mxCell id="PiMLSFsIB0W1W1bXV1jr-74" value="&lt;span style=&quot;color: rgb(0, 0, 0); font-family: helvetica; font-size: 11px; font-style: normal; font-weight: 400; letter-spacing: normal; text-align: left; text-indent: 0px; text-transform: none; word-spacing: 0px; background-color: rgb(255, 255, 255); display: inline; float: none;&quot;&gt;no&lt;/span&gt;" style="text;whiteSpace=wrap;html=1;" parent="1" vertex="1">
          <mxGeometry x="690" y="560" width="40" height="30" as="geometry" />
        </mxCell>
        <mxCell id="PiMLSFsIB0W1W1bXV1jr-75" value="&lt;span style=&quot;color: rgb(0 , 0 , 0) ; font-family: &amp;#34;helvetica&amp;#34; ; font-size: 11px ; font-style: normal ; font-weight: 400 ; letter-spacing: normal ; text-align: left ; text-indent: 0px ; text-transform: none ; word-spacing: 0px ; background-color: rgb(255 , 255 , 255) ; display: inline ; float: none&quot;&gt;yes&lt;/span&gt;" style="text;whiteSpace=wrap;html=1;" parent="1" vertex="1">
          <mxGeometry x="810" y="600" width="40" height="30" as="geometry" />
        </mxCell>
        <mxCell id="PiMLSFsIB0W1W1bXV1jr-76" value="Aguardando confirmação" style="swimlane;fontStyle=1;align=center;verticalAlign=middle;childLayout=stackLayout;horizontal=1;startSize=30;horizontalStack=0;resizeParent=0;resizeLast=1;container=0;fontColor=#000000;collapsible=0;rounded=1;arcSize=30;strokeColor=#ff0000;fillColor=#ffffc0;swimlaneFillColor=#ffffc0;dropTarget=0;" parent="1" vertex="1">
          <mxGeometry x="655" y="450" width="170" height="60" as="geometry" />
        </mxCell>
        <mxCell id="PiMLSFsIB0W1W1bXV1jr-80" style="edgeStyle=orthogonalEdgeStyle;rounded=0;orthogonalLoop=1;jettySize=auto;html=1;exitX=0.75;exitY=1;exitDx=0;exitDy=0;entryX=1;entryY=0;entryDx=0;entryDy=0;endArrow=open;endFill=0;strokeColor=#FF0000;" parent="1" target="PiMLSFsIB0W1W1bXV1jr-59" edge="1">
          <mxGeometry relative="1" as="geometry">
            <mxPoint x="782.5" y="510" as="sourcePoint" />
          </mxGeometry>
        </mxCell>
        <mxCell id="PiMLSFsIB0W1W1bXV1jr-84" value="Pedido Criado" style="swimlane;fontStyle=1;align=center;verticalAlign=middle;childLayout=stackLayout;horizontal=1;startSize=30;horizontalStack=0;resizeParent=0;resizeLast=1;container=0;fontColor=#000000;collapsible=0;rounded=1;arcSize=30;strokeColor=#ff0000;fillColor=#ffffc0;swimlaneFillColor=#ffffc0;dropTarget=0;" parent="1" vertex="1">
          <mxGeometry x="430" y="250" width="160" height="60" as="geometry" />
        </mxCell>
        <mxCell id="PiMLSFsIB0W1W1bXV1jr-85" value="Entry: /Espetáculo" style="text;html=1;strokeColor=none;fillColor=none;align=center;verticalAlign=middle;spacingLeft=4;spacingRight=4;whiteSpace=wrap;overflow=hidden;rotatable=0;fontColor=#000000;" parent="PiMLSFsIB0W1W1bXV1jr-84" vertex="1">
          <mxGeometry y="30" width="160" height="30" as="geometry" />
        </mxCell>
      </root>
    </mxGraphModel>
  </diagram>
</mxfile>
